<svg width="252" height="24" viewBox="0 0 252 24" fill="none" xmlns="http://www.w3.org/2000/svg">
<path d="M42.5195 16.4709C42.2577 16.2165 42.0548 15.9079 41.9247 15.5667C41.7947 15.2255 41.7407 14.86 41.7666 14.4958V7.33816H46.6549V5.27626H41.7666V0.843503L39.338 1.98902V5.27626H36.9441V7.33816H39.3137V14.8048C39.3137 16.2303 39.7382 17.3503 40.587 18.1649C41.4358 18.9795 42.6571 19.3879 44.2507 19.3902C45.1205 19.4297 45.9867 19.2545 46.7729 18.88V16.6896C46.064 16.9909 45.3019 17.1467 44.5317 17.1478C43.7996 17.1844 43.0808 16.9426 42.5195 16.4709ZM11.9889 5.92537C10.8387 5.25342 9.52494 4.91341 8.19337 4.94303C6.87818 4.91967 5.58075 5.24929 4.43603 5.89762C3.35841 6.52004 2.47356 7.42818 1.87909 8.52186C1.26446 9.65112 0.949139 10.919 0.963171 12.2048C0.941565 13.5143 1.2659 14.8064 1.90338 15.9503C2.53476 17.0575 3.47195 17.959 4.60256 18.5467C5.8646 19.1982 7.26972 19.5229 8.68949 19.4909C9.86761 19.5129 11.0391 19.3102 12.1415 18.8938C13.0369 18.559 13.843 18.0221 14.4972 17.3249L13.0436 15.6448C11.9403 16.7486 10.4982 17.3006 8.71725 17.3006C7.44335 17.3491 6.19226 16.9527 5.17848 16.1794C4.24092 15.4286 3.63645 14.3387 3.49582 13.1455H15.2917C15.3578 12.8538 15.3927 12.5559 15.3958 12.2569C15.4071 10.9759 15.102 9.71201 14.5076 8.57739C13.9366 7.4767 13.0688 6.558 12.0028 5.92537H11.9889ZM3.48195 11.1322C3.64676 9.99377 4.21724 8.95329 5.08827 8.20249C5.73211 7.63735 6.51708 7.25749 7.3596 7.10335C8.20213 6.94921 9.07065 7.02657 9.87271 7.32719C10.6748 7.62781 11.3803 8.14043 11.9143 8.81048C12.4482 9.48053 12.7905 10.2829 12.9048 11.1322H3.48195ZM59.5021 13.5621C59.5109 14.2266 59.32 14.8785 58.9539 15.433C58.5744 15.9978 58.051 16.4508 57.4378 16.7452C56.7391 17.0806 55.9714 17.247 55.1966 17.2311C54.0274 17.2311 53.1149 16.9222 52.487 16.3008C52.1592 15.9631 51.905 15.5612 51.7402 15.1203C51.5754 14.6794 51.5036 14.2091 51.5294 13.7391V5.27626H49.1009V14.1903C49.0719 15.1711 49.3119 16.1411 49.7947 16.9951C50.2661 17.7892 50.9563 18.4304 51.7827 18.8418C52.6928 19.2893 53.697 19.5119 54.7109 19.4909C55.6481 19.4934 56.5773 19.3167 57.4482 18.9702C58.3261 18.6149 59.0819 18.0119 59.6235 17.2346V19.1473H61.9411V5.26238H59.5125L59.5021 13.5621ZM25.457 4.94996C24.5058 4.94517 23.5629 5.12679 22.6815 5.48454C21.8152 5.84134 21.0655 6.43276 20.5166 7.19237V5.28321H18.1991V19.1681H20.645V10.8788C20.635 10.2141 20.8261 9.56194 21.1931 9.00782C21.5777 8.43836 22.1103 7.9847 22.7336 7.69571C23.4415 7.36207 24.2166 7.19579 24.9991 7.20973C26.1856 7.20973 27.105 7.52213 27.7503 8.14001C28.0798 8.47676 28.3357 8.87841 28.5017 9.31943C28.6678 9.76045 28.7403 10.2312 28.7148 10.7018V19.1611H31.1607V10.2436C31.1607 8.62367 30.6426 7.337 29.6064 6.38357C28.5702 5.43015 27.1917 4.94997 25.4709 4.94303L25.457 4.94996ZM81.0539 5.49842C80.1259 5.03583 79.0998 4.80478 78.0633 4.825C76.2985 4.825 74.9108 5.35147 73.9 6.4044V0H70.0976V19.1611H73.9139V11.1773C73.9 10.7901 73.9754 10.4049 74.1342 10.0516C74.293 9.69825 74.5311 9.38622 74.8298 9.13972C75.4934 8.61197 76.3247 8.34088 77.1717 8.37605C77.5543 8.35105 77.9381 8.4023 78.3008 8.52684C78.6635 8.65137 78.9978 8.84673 79.2845 9.10154C79.5396 9.37095 79.7369 9.68983 79.864 10.0385C79.9911 10.3872 80.0454 10.7582 80.0235 11.1287V19.1542H83.8398V10.2679C83.8578 9.26717 83.6023 8.28057 83.1008 7.41454C82.6206 6.59238 81.9151 5.92503 81.0678 5.49147L81.0539 5.49842ZM135.01 15.8912C134.907 15.7968 134.828 15.6802 134.777 15.5502C134.727 15.4202 134.706 15.2804 134.718 15.1415V10.549C134.718 8.74863 134.133 7.3428 132.963 6.33152C131.792 5.32024 130.154 4.81574 128.047 4.81805C126.929 4.81887 125.816 4.96829 124.737 5.26238C123.682 5.53706 122.689 6.00811 121.809 6.65087L123.668 9.4799C124.315 9.01738 125.033 8.66547 125.795 8.43853C126.471 8.23616 127.171 8.12983 127.877 8.12266C128.672 8.08046 129.46 8.30123 130.118 8.75095C130.39 8.95508 130.614 9.21615 130.775 9.51593C130.935 9.81572 131.028 10.147 131.048 10.4866H128.244C125.767 10.4866 123.917 10.8892 122.693 11.6945C122.232 11.9955 121.836 12.3873 121.53 12.8461C121.224 13.3049 121.015 13.8212 120.915 14.3635C120.815 14.9058 120.827 15.4627 120.949 16.0005C121.071 16.5382 121.301 17.0455 121.625 17.4915C122.167 18.1724 122.888 18.6892 123.706 18.9841C124.619 19.323 125.585 19.4913 126.558 19.4805C127.514 19.4908 128.464 19.3224 129.358 18.9841C130.196 18.6588 130.928 18.1073 131.471 17.3908C131.742 18.0181 132.237 18.5218 132.859 18.8036C133.542 19.1279 134.292 19.2894 135.048 19.2757C135.511 19.29 135.971 19.2035 136.397 19.0223V16.0648C136.206 16.1147 136.009 16.1403 135.811 16.1412C135.526 16.1572 135.245 16.0656 135.024 15.8843L135.01 15.8912ZM129.639 15.6621C128.839 16.2028 127.892 16.484 126.926 16.4675C126.324 16.508 125.724 16.3508 125.219 16.0197C125.033 15.8847 124.883 15.7064 124.781 15.5001C124.68 15.2938 124.63 15.0659 124.636 14.836C124.645 14.5881 124.721 14.3474 124.858 14.1404C124.995 13.9333 125.186 13.7681 125.41 13.6627C125.93 13.3573 126.903 13.2045 128.328 13.2045H131.027C130.993 13.6893 130.853 14.1605 130.615 14.5843C130.378 15.0081 130.049 15.3739 129.653 15.6552L129.639 15.6621ZM146.431 4.94996C145.58 4.95033 144.738 5.11536 143.95 5.43594C143.184 5.72667 142.523 6.24057 142.053 6.91121V5.15477H138.41V19.1681H142.226V12.0764C142.226 10.8013 142.6 9.88835 143.347 9.33759C144.216 8.75052 145.252 8.46069 146.299 8.51143C146.786 8.51239 147.273 8.55419 147.753 8.63639V5.10617C147.324 5.00352 146.885 4.94881 146.445 4.94303L146.431 4.94996ZM98.1024 5.80041C96.8429 5.16507 95.4521 4.83411 94.0415 4.83411C92.631 4.83411 91.2401 5.16507 89.9806 5.80041C88.838 6.41061 87.8896 7.32948 87.2433 8.45243C86.6095 9.58953 86.2768 10.8699 86.2768 12.1718C86.2768 13.4738 86.6095 14.7541 87.2433 15.8912C87.8898 17.0131 88.8383 17.9308 89.9806 18.5398C91.2397 19.1765 92.6308 19.5082 94.0415 19.5082C95.4523 19.5082 96.8433 19.1765 98.1024 18.5398C99.2448 17.9308 100.193 17.0131 100.84 15.8912C101.474 14.7541 101.806 13.4738 101.806 12.1718C101.806 10.8699 101.474 9.58953 100.84 8.45243C100.193 7.32948 99.245 6.41061 98.1024 5.80041ZM97.4433 14.1695C97.1026 14.7469 96.6091 15.219 96.0173 15.5337C95.4083 15.853 94.7309 16.0198 94.0433 16.0198C93.3556 16.0198 92.6783 15.853 92.0692 15.5337C91.476 15.2209 90.9821 14.7484 90.6433 14.1695C90.2998 13.5592 90.1193 12.8705 90.1193 12.1701C90.1193 11.4696 90.2998 10.781 90.6433 10.1707C90.9821 9.59179 91.476 9.11924 92.0692 8.80648C92.679 8.48944 93.3561 8.32393 94.0433 8.32393C94.7305 8.32393 95.4076 8.48944 96.0173 8.80648C96.6091 9.12118 97.1026 9.59327 97.4433 10.1707C97.7845 10.7818 97.9636 11.4701 97.9636 12.1701C97.9636 12.8701 97.7845 13.5584 97.4433 14.1695ZM114.998 6.56756C113.93 5.41049 112.478 4.83195 110.644 4.83195C109.358 4.80966 108.089 5.12565 106.963 5.74834C105.913 6.33075 105.043 7.18893 104.444 8.23027C103.84 9.27991 103.527 10.4726 103.539 11.6841C103.523 12.8951 103.836 14.0878 104.444 15.1345C105.043 16.1625 105.915 17.0037 106.963 17.5644C108.105 18.1639 109.379 18.4659 110.669 18.4426C112.401 18.4426 113.801 17.9323 114.87 16.9118V17.6789C114.886 18.1162 114.792 18.5505 114.596 18.9418C114.4 19.3331 114.109 19.6688 113.749 19.9179C113.005 20.457 111.978 20.7267 110.669 20.7267C109.038 20.6884 107.434 20.3064 105.961 19.6055L104.687 22.7295C105.592 23.1288 106.535 23.4358 107.501 23.6459C108.558 23.883 109.638 23.9994 110.721 23.9931C112.146 24.0225 113.562 23.7627 114.884 23.2294C115.999 22.7848 116.963 22.028 117.659 21.0495C118.324 20.0714 118.667 18.9101 118.641 17.7275V5.14782H114.998V6.56756ZM113.864 14.2042C113.102 14.8307 112.146 15.1731 111.159 15.1731C110.173 15.1731 109.217 14.8307 108.455 14.2042C108.117 13.877 107.848 13.4851 107.665 13.0519C107.481 12.6187 107.387 12.1529 107.387 11.6824C107.387 11.2119 107.481 10.7461 107.665 10.3129C107.848 9.87966 108.117 9.48777 108.455 9.16055C109.215 8.53428 110.169 8.19183 111.154 8.19183C112.139 8.19183 113.093 8.53428 113.853 9.16055C114.19 9.48852 114.458 9.88065 114.64 10.3138C114.823 10.7469 114.917 11.2123 114.917 11.6824C114.917 12.1525 114.823 12.6179 114.64 13.051C114.458 13.4841 114.19 13.8763 113.853 14.2042H113.864Z" fill="url(#paint0_linear_511_14536)"/>
<path d="M228.588 10.8406C228.588 10.8406 228.162 10.07 227.44 10.0804C226.198 10.1013 224.956 11.0489 223.513 12.6942C222.472 13.8988 220.702 16.5785 220.702 16.5785C220.702 16.5785 219.36 18.6613 218.68 18.4877C217.517 18.2135 219.651 13.9196 219.651 13.9196C220.55 13.3375 221.41 12.6975 222.225 12.0035C223.141 11.2329 224.193 10.1742 225.16 9.1918C226.204 8.11263 227.174 6.96454 228.064 5.75528C227.808 5.79786 227.55 5.82452 227.291 5.83512C226.475 6.89948 225.596 7.91483 224.661 8.87591C223.685 9.89787 222.652 10.8633 221.566 11.7674C221.171 12.0971 220.751 12.3965 220.31 12.663C221.435 10.4564 222.737 8.3448 224.203 6.34887C226.632 3.03386 230.045 -0.0451199 229.778 1.41626C229.62 2.02748 229.374 2.61223 229.046 3.15187C229.324 3.09286 229.594 3.01997 229.851 2.94013C230.437 1.72868 230.639 0.728962 230.198 0.440851C228.411 -0.735891 223.87 4.13422 221.594 6.95979C219.318 9.78536 217.257 14.107 217.257 14.107C217.015 14.2051 216.764 14.2806 216.508 14.3327C216.379 14.3699 216.244 14.377 216.112 14.3535C216.092 14.3535 216.092 14.3327 216.092 14.3327C216.092 14.3327 218.093 10.5872 216.043 10.0874C214.065 9.60833 210.638 13.2705 209.416 15.8183C208.58 17.554 208.108 19.7651 209.545 20.2893C211.096 20.8586 213.736 18.0226 214.357 17.1964C214.856 16.4878 215.319 15.7544 215.745 14.9991C215.745 14.9991 216.126 14.9991 216.331 14.9505C216.73 14.8915 216.914 14.8429 216.914 14.8429C216.914 14.8429 216.657 15.5164 216.379 16.3703C215.863 17.9601 215.394 20.2372 217.257 20.3413C218.447 20.4108 220.189 18.2586 220.189 18.2586C220.189 18.2586 219.721 20.1643 221.261 20.3413C222.399 20.4698 224.057 18.7099 224.057 18.7099C224.057 18.7099 223.71 20.2233 224.848 20.3587C225.837 20.4732 227.239 19.3173 228.39 18.0399C229.2 17.1241 229.941 16.1495 230.607 15.1241H229.879C229.879 15.1241 228.262 17.5748 227.128 18.2482C226.198 18.7862 226.517 17.9219 226.781 17.4706C227.044 17.0194 231.027 10.3095 231.027 10.3095H228.928L228.588 10.8406ZM215.058 14.9332C214.728 15.5252 214.356 16.0925 213.944 16.6306C213.34 17.4047 212.234 18.571 211.567 18.3246C210.527 17.9393 211.672 15.6726 212.421 14.5722C213.17 13.4718 213.254 13.3989 213.274 13.3677C213.295 13.3364 213.316 13.3156 213.333 13.3468C213.521 13.6811 213.768 13.9786 214.062 14.2251C214.353 14.4728 214.676 14.6795 215.023 14.8395C215.061 14.8533 215.085 14.8707 215.058 14.9332ZM215.526 14.1174C215.46 14.2285 215.412 14.232 215.276 14.1973C215.037 14.1313 214.041 13.6697 214.048 12.6491C214.055 11.6286 215.457 10.6809 216.008 11.0975C216.56 11.514 216.275 12.486 216.081 12.9858C215.923 13.379 215.737 13.7606 215.526 14.1279V14.1174ZM228.113 11.5835C227.731 12.2465 225.809 15.5337 225.046 16.5785C224.768 16.9569 224.539 17.3006 224.331 17.5401C223.884 18.0573 223.592 18.2968 223.332 18.3593C223.199 18.395 223.057 18.3801 222.933 18.3176C222.552 18.0885 222.819 17.186 223.481 15.9711C224.155 14.7084 224.981 13.5333 225.941 12.4721C227.1 11.1912 227.54 11.1287 227.863 11.1426C227.941 11.1497 228.015 11.1831 228.071 11.2373C228.128 11.2916 228.165 11.3634 228.175 11.4411C228.161 11.491 228.14 11.5388 228.113 11.5835ZM183.143 5.06799C181.12 4.55078 177.762 7.99768 176.346 10.799C175.472 12.5346 175.09 14.7041 176.645 15.2699C178.199 15.8357 180.836 12.9997 181.457 12.1736C182.078 11.3474 183.091 9.69858 183.091 9.69858C183.091 9.69858 183.403 9.63957 183.608 9.59098C183.812 9.54238 184.142 9.44867 184.142 9.44867C184.142 9.44867 183.757 10.1429 183.413 10.8372C183.004 11.6668 181.894 14.4264 184.038 15.2525C186.088 16.044 189.01 12.7463 189.162 12.6838C189.162 12.6838 188.291 14.9297 189.644 15.2768C191.126 15.6552 192.746 13.7564 192.746 13.7564C192.746 13.7564 192.399 15.1831 193.561 15.315C195.643 15.5545 199.282 10.2644 199.282 10.2644H198.554C198.554 10.2644 196.691 12.6595 195.778 13.1559C194.866 13.6523 195.206 12.7706 195.449 12.3784C195.761 11.8785 199.713 5.26931 199.713 5.26931H197.631L197.388 5.65463C197.26 5.46571 197.088 5.31113 196.887 5.20458C196.685 5.09803 196.461 5.04278 196.233 5.04369C194.134 5.17907 191.632 8.5149 190.536 10.0075C189.44 11.5001 187.067 14.3014 185.818 13.7981C184.458 13.2531 185.818 10.7365 186.702 9.26121C187.677 7.65403 189.405 6.06074 190.088 6.04686C190.928 6.04686 190.598 6.79318 190.598 6.79318C190.391 6.78141 190.183 6.82048 189.994 6.90697C189.805 6.99346 189.64 7.12477 189.513 7.28956C189.193 7.69569 188.926 8.28579 189.232 8.60862C189.724 9.1293 190.37 8.60863 190.755 8.01158C191.952 6.1753 191.077 5.20684 190.134 5.06799C188.128 4.766 186.279 7.34509 184.874 8.30315C183.899 8.96615 183.486 8.91408 183.486 8.91408C183.486 8.91408 185.186 5.58867 183.143 5.06799ZM192.226 11.0038C192.96 9.76002 193.799 8.5813 194.734 7.48047C195.81 6.13711 196.344 6.02952 196.67 6.0434C196.747 6.05126 196.82 6.08497 196.876 6.13912C196.932 6.19327 196.968 6.26471 196.979 6.34192C196.979 6.34192 194.644 10.4171 193.794 11.5765C193.52 11.9584 193.28 12.2708 193.072 12.5207C192.628 13.0344 192.302 13.2844 192.052 13.3468C191.919 13.3825 191.777 13.3677 191.653 13.3052C191.272 13.0865 191.57 12.2187 192.226 11.0038ZM182.31 9.68123C181.926 10.3341 181.506 10.9645 181.051 11.5696C180.447 12.3437 179.316 13.5135 178.667 13.267C177.626 12.8817 178.737 10.6289 179.483 9.53197C180.228 8.43507 180.343 8.28926 180.364 8.26149C180.385 8.23372 180.405 8.20596 180.423 8.24067C180.603 8.5863 180.868 8.88024 181.193 9.09459C181.53 9.30627 181.894 9.47203 182.275 9.5875C182.31 9.61527 182.338 9.61528 182.31 9.68123ZM183.177 7.94562C183.061 8.25343 182.928 8.5547 182.778 8.84813C182.759 8.88248 182.729 8.90935 182.692 8.92445C182.656 8.93954 182.615 8.94201 182.577 8.93146C182.411 8.93146 181.141 8.63292 181.148 7.61238C181.155 6.59184 182.556 5.64421 183.105 6.06075C183.653 6.4773 183.372 7.45965 183.177 7.96297V7.94562ZM203.227 5.25543H201.232L200.108 7.07782H202.099L203.227 5.25543ZM232.634 1.9786C231.163 2.92624 229.119 3.78709 227.159 3.59618C226.666 4.10992 226.118 4.70349 225.601 5.35261C229.001 6.02603 231.978 3.91553 233.56 2.12091C234.136 1.4763 234.633 0.764136 235.038 0C234.319 0.758646 233.511 1.4287 232.634 1.99595V1.9786ZM208.396 10.07C207.356 10.1568 205.506 11.0905 204.504 13.1316C203.501 15.1727 203.494 16.4362 203.494 16.4362C203.907 16.0018 204.356 15.6034 204.837 15.2456C205.27 14.9082 205.746 14.6304 206.252 14.4195C206.372 13.8914 206.548 13.378 206.78 12.8886C207.127 12.125 207.723 11.3301 208.438 11.153C209.892 10.8059 209.194 13.4406 208.129 15.1692C207.557 16.096 205.524 18.7689 203.772 18.7689C202.02 18.7689 201.69 17.0784 202.054 15.499C202.419 13.9196 202.932 11.9167 205.486 8.27192C208.039 4.62714 210.804 2.46804 212.404 1.56205C214.003 0.65606 214.718 1.03789 214.718 1.03789C214.718 1.03789 212.619 2.32919 211.425 3.88429C210.284 5.37345 209.604 7.04311 210.135 7.86579C210.665 8.68847 212.414 8.66068 214.371 5.83164C216.327 3.0026 215.817 1.38156 215.817 1.38156C215.943 1.34 216.072 1.30751 216.203 1.28435C217.143 1.15939 217.899 1.40933 219.068 2.00985C220.293 2.63467 221.466 3.64478 223.075 4.46746C223.561 3.93636 224.099 3.37403 224.668 2.8221C222.496 1.78074 220.852 0.260347 218.721 0.114556C217.589 0.0447222 216.456 0.233447 215.408 0.666468C215.408 0.666468 214.843 -0.104142 213.101 0.145785C211.359 0.395713 205.989 2.64507 201.423 9.9624C197.291 16.582 199.237 20.3761 202.207 20.3309C205.427 20.2823 208.487 16.7035 209.524 13.7356C210.561 10.7677 209.337 9.99364 208.396 10.07ZM214.714 3.92247C214.243 5.05427 213.516 6.0617 212.591 6.86608C211.588 7.7686 211.037 7.73735 210.797 7.56032C210.173 7.08477 211.009 5.29361 212.463 3.69338C213.916 2.09315 215.155 1.61065 215.155 1.61065C215.155 1.61065 215.359 2.32571 214.714 3.92247ZM230.222 18.21C230.039 18.1122 229.834 18.061 229.626 18.061C229.417 18.061 229.213 18.1122 229.029 18.21C228.853 18.3088 228.707 18.4526 228.606 18.6266C228.506 18.8003 228.453 18.9972 228.453 19.1976C228.453 19.398 228.506 19.5949 228.606 19.7686C228.709 19.939 228.855 20.08 229.029 20.1782C229.212 20.2785 229.417 20.331 229.626 20.331C229.834 20.331 230.039 20.2785 230.222 20.1782C230.397 20.081 230.543 19.9398 230.646 19.7686C230.745 19.5949 230.798 19.398 230.798 19.1976C230.798 18.9972 230.745 18.8003 230.646 18.6266C230.545 18.4518 230.399 18.3078 230.222 18.21ZM230.427 19.6818C230.35 19.819 230.235 19.932 230.097 20.0081C229.949 20.0848 229.785 20.1248 229.619 20.1248C229.452 20.1248 229.288 20.0848 229.14 20.0081C229.002 19.932 228.888 19.819 228.81 19.6818C228.735 19.537 228.696 19.3763 228.696 19.2132C228.696 19.0501 228.735 18.8893 228.81 18.7446C228.889 18.6081 229.003 18.4954 229.14 18.4183C229.288 18.3416 229.452 18.3016 229.619 18.3016C229.785 18.3016 229.949 18.3416 230.097 18.4183C230.235 18.4954 230.349 18.6081 230.427 18.7446C230.502 18.8893 230.541 19.0501 230.541 19.2132C230.541 19.3763 230.502 19.537 230.427 19.6818ZM230.08 19.175C230.113 19.1257 230.132 19.0682 230.135 19.0088C230.138 18.9494 230.124 18.8904 230.095 18.8384C230.066 18.7863 230.024 18.7432 229.972 18.7138C229.921 18.6844 229.862 18.6698 229.803 18.6717H229.206V19.7131H229.469V19.3347H229.667L229.91 19.7096H230.208L229.938 19.3104C229.999 19.2817 230.048 19.2343 230.08 19.175ZM229.83 19.0674C229.808 19.0868 229.78 19.0968 229.75 19.0952H229.469V18.8938H229.733C229.762 18.8922 229.791 18.9022 229.813 18.9216C229.823 18.931 229.831 18.9423 229.836 18.9549C229.841 18.9674 229.844 18.9809 229.844 18.9945C229.844 19.0081 229.841 19.0216 229.836 19.0342C229.831 19.0467 229.823 19.058 229.813 19.0674H229.83ZM194.148 18.1822C192.703 17.3206 191.052 16.8694 189.37 16.8771C184.548 16.8354 179.309 19.182 175.736 19.2132C171.538 19.2479 171.33 16.0197 171.638 14.2459C172.308 10.4276 175.017 6.77583 176.759 4.85278C178.501 2.92972 180.329 1.44055 181.845 1.05872C183.361 0.676883 183.233 1.83282 183.035 1.98902C182.768 1.98645 182.504 2.05215 182.268 2.17993C182.044 2.31832 181.856 2.50768 181.718 2.73265C181.581 2.95762 181.498 3.21185 181.477 3.47469C181.429 4.48135 182.733 4.65838 183.677 2.54788C184.319 1.10386 183.299 0.118034 182.452 0.0347249C181.294 -0.0971814 179.517 0.308937 177.401 1.66965C173.713 4.03703 168.786 9.30633 168.658 15.138C168.589 18.4703 170.764 20.3448 173.748 20.3448C176.87 20.3448 180.78 18.519 184.735 18.4704C187.185 18.4495 188.77 19.3104 189.572 20.7093C189.861 20.2918 190.246 19.9485 190.693 19.7072C191.14 19.466 191.638 19.3336 192.146 19.3208C194.026 19.2467 195.879 19.7864 197.426 20.8586C196.882 20.0775 195.386 18.9563 194.134 18.1822H194.148ZM158.649 10.7261C158.275 10.5069 157.847 10.3953 157.414 10.4033C157.115 10.3951 156.818 10.4531 156.544 10.5731C156.269 10.6931 156.025 10.8722 155.828 11.0975V8.78218H154.753V15.1692H155.794V14.5409C155.991 14.7814 156.241 14.9729 156.524 15.1006C156.808 15.2282 157.117 15.2885 157.428 15.2768C157.861 15.2848 158.289 15.1731 158.663 14.954C159.017 14.7431 159.308 14.4394 159.502 14.0758C159.701 13.6947 159.804 13.2714 159.804 12.8418C159.804 12.4121 159.701 11.9888 159.502 11.6078C159.304 11.241 159.009 10.936 158.649 10.7261ZM158.514 13.5864C158.395 13.8028 158.218 13.9819 158.004 14.1036C157.777 14.2307 157.521 14.2954 157.261 14.291C157.001 14.2945 156.744 14.2311 156.515 14.107C156.298 13.9871 156.118 13.8093 155.995 13.5933C155.87 13.3613 155.804 13.1019 155.804 12.8383C155.804 12.5747 155.87 12.3153 155.995 12.0833C156.119 11.8686 156.299 11.6912 156.515 11.5696C156.744 11.4467 157.001 11.3845 157.261 11.3891C157.521 11.3847 157.777 11.4494 158.004 11.5765C158.22 11.6962 158.397 11.8758 158.514 12.0937C158.632 12.3246 158.694 12.5804 158.694 12.84C158.694 13.0996 158.632 13.3555 158.514 13.5864ZM162.601 13.9682L161.15 10.5143H159.953L162.035 15.1137L161.959 15.3011C161.893 15.4584 161.783 15.5934 161.643 15.6899C161.513 15.7786 161.36 15.8258 161.202 15.8253C160.921 15.8134 160.644 15.7474 160.387 15.6309L160.099 16.5126C160.277 16.6027 160.466 16.6681 160.661 16.707C160.85 16.7505 161.043 16.7738 161.237 16.7764C161.584 16.7849 161.924 16.6855 162.212 16.4918C162.506 16.2796 162.735 15.99 162.875 15.6552L165.147 10.5143H164.002L162.601 13.9682Z" fill="black"/>
<defs>
<linearGradient id="paint0_linear_511_14536" x1="0.962152" y1="11.9977" x2="106.683" y2="77.8912" gradientUnits="userSpaceOnUse">
<stop stop-color="#00A0D1"/>
<stop offset="0.130208" stop-color="#82E1FF"/>
<stop offset="0.265625" stop-color="#78E6A0"/>
<stop offset="0.442708" stop-color="#FFB400"/>
<stop offset="0.651042" stop-color="#FF8700"/>
<stop offset="0.848958" stop-color="#FF5A00"/>
<stop offset="1" stop-color="#F40000"/>
</linearGradient>
</defs>
</svg>
